<svg width="32" height="31" viewBox="0 0 32 31" fill="none" xmlns="http://www.w3.org/2000/svg">
<path d="M6 15.5714C6 15.8745 6.12041 16.1652 6.33474 16.3795C6.54906 16.5939 6.83975 16.7143 7.14286 16.7143H14C14.3031 16.7143 14.5938 16.5939 14.8081 16.3795C15.0224 16.1652 15.1429 15.8745 15.1429 15.5714V6.42856C15.1429 6.12546 15.0224 5.83477 14.8081 5.62044C14.5938 5.40611 14.3031 5.28571 14 5.28571H7.14286C6.83975 5.28571 6.54906 5.40611 6.33474 5.62044C6.12041 5.83477 6 6.12546 6 6.42856V15.5714ZM6 24.7143C6 25.0174 6.12041 25.3081 6.33474 25.5224C6.54906 25.7367 6.83975 25.8571 7.14286 25.8571H14C14.3031 25.8571 14.5938 25.7367 14.8081 25.5224C15.0224 25.3081 15.1429 25.0174 15.1429 24.7143V20.1428C15.1429 19.8397 15.0224 19.5491 14.8081 19.3347C14.5938 19.1204 14.3031 19 14 19H7.14286C6.83975 19 6.54906 19.1204 6.33474 19.3347C6.12041 19.5491 6 19.8397 6 20.1428V24.7143ZM17.4286 24.7143C17.4286 25.0174 17.549 25.3081 17.7633 25.5224C17.9776 25.7367 18.2683 25.8571 18.5714 25.8571H25.4286C25.7317 25.8571 26.0224 25.7367 26.2367 25.5224C26.451 25.3081 26.5714 25.0174 26.5714 24.7143V15.5714C26.5714 15.2683 26.451 14.9776 26.2367 14.7633C26.0224 14.549 25.7317 14.4286 25.4286 14.4286H18.5714C18.2683 14.4286 17.9776 14.549 17.7633 14.7633C17.549 14.9776 17.4286 15.2683 17.4286 15.5714V24.7143ZM18.5714 5.28571C18.2683 5.28571 17.9776 5.40611 17.7633 5.62044C17.549 5.83477 17.4286 6.12546 17.4286 6.42856V11C17.4286 11.3031 17.549 11.5938 17.7633 11.8081C17.9776 12.0224 18.2683 12.1428 18.5714 12.1428H25.4286C25.7317 12.1428 26.0224 12.0224 26.2367 11.8081C26.451 11.5938 26.5714 11.3031 26.5714 11V6.42856C26.5714 6.12546 26.451 5.83477 26.2367 5.62044C26.0224 5.40611 25.7317 5.28571 25.4286 5.28571H18.5714Z" fill="#154B02"/>
</svg>
