<svg width="32" height="32" viewBox="0 0 32 32" fill="none" xmlns="http://www.w3.org/2000/svg">
<path d="M24.4827 5.25H14.8398C13.945 5.25096 13.0871 5.60684 12.4544 6.23957C11.8217 6.8723 11.4658 7.73019 11.4648 8.625V14.8929H20.7081L17.5332 11.7173C17.36 11.535 17.2649 11.2923 17.2681 11.0408C17.2713 10.7894 17.3726 10.5491 17.5504 10.3713C17.7283 10.1935 17.9685 10.0922 18.22 10.089C18.4714 10.0857 18.7142 10.1809 18.8965 10.3541L23.7179 15.1755C23.8986 15.3563 24.0001 15.6015 24.0001 15.8571C24.0001 16.1128 23.8986 16.358 23.7179 16.5388L18.8965 21.3602C18.7142 21.5334 18.4714 21.6285 18.22 21.6253C17.9685 21.6221 17.7283 21.5208 17.5504 21.343C17.3726 21.1652 17.2713 20.9249 17.2681 20.6735C17.2649 20.422 17.36 20.1793 17.5332 19.9969L20.7081 16.8214H11.4648V23.0893C11.4648 25.0209 13.5013 26.4643 15.322 26.4643H24.4827C25.3775 26.4633 26.2354 26.1074 26.8681 25.4747C27.5009 24.842 27.8567 23.9841 27.8577 23.0893V8.625C27.8567 7.73019 27.5009 6.8723 26.8681 6.23957C26.2354 5.60684 25.3775 5.25096 24.4827 5.25ZM5.67913 14.8929C5.42339 14.8929 5.17812 14.9945 4.99728 15.1753C4.81644 15.3561 4.71484 15.6014 4.71484 15.8571C4.71484 16.1129 4.81644 16.3582 4.99728 16.539C5.17812 16.7198 5.42339 16.8214 5.67913 16.8214H11.4648V14.8929H5.67913Z" fill="#154B02"/>
</svg>
