<svg width="32" height="32" viewBox="0 0 32 32" fill="none" xmlns="http://www.w3.org/2000/svg">
<g clip-path="url(#clip0_40_651)">
<path d="M8.19675 7.11713L7.28516 8.02872L8.89104 10.8059L9.93247 10.6531L16.2893 17.0107L15.7471 17.5314C15.4694 17.8091 15.4694 18.2299 15.7471 18.5076L16.029 18.7902C16.3067 19.0679 16.7316 19.0679 16.9399 18.7902L17.7647 19.6143C17.6953 20.0308 17.7647 20.5259 18.1118 20.873L21.8652 24.6048C22.6289 25.3685 23.8786 25.3685 24.6423 24.6048C25.5449 23.7717 25.5365 22.5261 24.7728 21.7624L21.041 18.0084C20.6939 17.6612 20.1989 17.5224 19.7823 17.6612L18.8707 16.8371C19.079 16.5594 19.079 16.1345 18.8707 15.9255L18.6103 15.6659C18.5472 15.6 18.4715 15.5477 18.3876 15.5119C18.3037 15.4761 18.2135 15.4577 18.1223 15.4577C18.0311 15.4577 17.9408 15.4761 17.8569 15.5119C17.7731 15.5477 17.6973 15.6 17.6342 15.6659L17.1787 16.1213L10.8218 9.76444L10.9732 8.72301L8.19675 7.11713ZM21.7353 7.13865C20.3655 7.02479 18.5492 7.93291 17.6994 8.72231C16.6538 9.76791 16.8246 11.135 17.6557 12.4548L16.181 13.9302L17.2225 15.1014C17.7779 14.6154 18.5972 14.6154 19.1526 15.1014L19.4352 15.3833L19.5004 15.4486L20.1079 14.8411C21.3632 15.5791 22.6698 15.6853 23.6661 14.689C24.6381 13.7864 25.6921 11.5606 25.2061 10.2414L23.2537 12.259C22.976 12.5367 22.5553 12.5367 22.2776 12.259L20.2593 10.2414C20.1935 10.1783 20.1411 10.1025 20.1053 10.0186C20.0695 9.93477 20.0511 9.84452 20.0511 9.75333C20.0511 9.66214 20.0695 9.57189 20.1053 9.48801C20.1411 9.40414 20.1935 9.32836 20.2593 9.26525L22.2783 7.24765C22.1047 7.18656 21.9311 7.15531 21.7353 7.13865ZM14.0982 15.7957L11.5807 18.3125C11.3101 18.2526 11.0337 18.2235 10.7566 18.2257C8.81258 18.2257 7.28516 19.7531 7.28516 21.6971C7.28516 23.6411 8.81258 25.1686 10.7566 25.1686C12.7006 25.1686 14.228 23.6411 14.228 21.6971C14.228 21.341 14.1718 20.9987 14.076 20.6772L15.5513 19.2019L15.3347 18.92C14.7793 18.3646 14.7834 17.5231 15.2694 16.967L14.0982 15.7957ZM19.4789 18.9637C19.5657 18.9637 19.6476 18.9804 19.717 19.0505L23.8182 23.151C23.957 23.2898 23.957 23.5106 23.8182 23.6495C23.6793 23.7883 23.4572 23.7883 23.3183 23.6495L19.2185 19.549C19.0797 19.4101 19.0797 19.1894 19.2185 19.0505C19.288 18.9811 19.3921 18.9637 19.4789 18.9637ZM11.2343 19.8955L12.5576 21.2195L12.0799 23.0197L10.2796 23.4974L8.95561 22.1734L9.43328 20.3731L11.2343 19.8955Z" fill="#154B02"/>
</g>
<defs>
<clipPath id="clip0_40_651">
<rect width="18.0514" height="18.0514" fill="white" transform="translate(7.28613 7.11713)"/>
</clipPath>
</defs>
</svg>
